<svg preserveAspectRatio="none" width="100%" height="100%" overflow="visible" style="display: block;" viewBox="0 0 740.998 1064.71" fill="none" xmlns="http://www.w3.org/2000/svg">
<path id="Subtract" d="M44.1572 0C42.8838 2.53581 42.1777 5.4034 42.2061 8.43359C42.3012 18.6006 50.6204 26.7482 60.7871 26.6318C70.954 26.5154 79.1194 18.1788 79.0244 8.01172C78.9975 5.13164 78.3093 2.41403 77.1074 0H91.8359C90.7297 2.39784 90.1221 5.0711 90.1484 7.88477C90.2436 18.0517 98.5627 26.1994 108.729 26.083C118.896 25.9666 127.061 17.63 126.966 7.46289C126.941 4.79905 126.351 2.27427 125.312 0H139.536C138.584 2.25413 138.067 4.73433 138.091 7.33496C138.186 17.502 146.505 25.6506 156.672 25.5342C166.839 25.4176 175.003 17.0809 174.908 6.91406C174.885 4.46267 174.383 2.12907 173.493 0H187.256C186.446 2.10559 186.011 4.39586 186.033 6.78711C186.128 16.954 194.448 25.1018 204.614 24.9854C214.781 24.8687 222.946 16.5321 222.851 6.36523C222.83 4.12302 222.409 1.9788 221.656 0H234.998C234.318 1.95245 233.955 4.05233 233.976 6.2373C234.071 16.4043 242.389 24.5518 252.556 24.4355C262.722 24.3191 270.888 15.9834 270.793 5.81641C270.774 3.77982 270.424 1.82434 269.796 0H282.758C282.195 1.79518 281.899 3.7069 281.917 5.68848C282.012 15.8555 290.331 24.0041 300.498 23.8877C310.665 23.7713 318.829 15.4345 318.734 5.26758C318.717 3.43377 318.432 1.66577 317.917 0H330.537C330.081 1.63422 329.843 3.35875 329.859 5.13965C329.954 15.3067 338.274 23.4543 348.44 23.3379C358.607 23.2215 366.772 14.8849 366.677 4.71777C366.661 3.08431 366.433 1.50331 366.02 0H378.335C377.973 1.46989 377.787 3.0081 377.802 4.59082C377.897 14.7579 386.216 22.9055 396.383 22.7891C406.55 22.6726 414.714 14.336 414.619 4.16895C414.606 2.73313 414.428 1.33768 414.104 0H426.151C425.873 1.30251 425.731 2.65514 425.744 4.04199C425.839 14.2089 434.158 22.3564 444.324 22.2402C454.491 22.1238 462.657 13.7872 462.562 3.62012C462.55 2.3795 462.415 1.16913 462.17 0H473.985C473.779 1.13232 473.675 2.3001 473.687 3.49316C473.782 13.66 482.1 21.8076 492.267 21.6914C502.433 21.575 510.599 13.2384 510.504 3.07129C510.494 2.02371 510.395 0.997866 510.218 0H521.836C521.691 0.95959 521.62 1.94314 521.629 2.94434C521.724 13.1112 530.042 21.2588 540.209 21.1426C550.376 21.0262 558.541 12.6895 558.446 2.52246C558.438 1.66603 558.371 0.824036 558.25 0H569.703C569.609 0.784579 569.563 1.58438 569.57 2.39551C569.666 12.5624 577.985 20.7101 588.151 20.5938C598.318 20.4773 606.483 12.1407 606.388 1.97363C606.381 1.30645 606.339 0.648027 606.264 0H617.587C617.532 0.60739 617.507 1.22312 617.513 1.8457C617.608 12.0128 625.927 20.1613 636.094 20.0449C646.26 19.9285 654.425 11.5918 654.33 1.4248C654.326 0.945227 654.303 0.469936 654.263 0H665.488C665.462 0.4286 665.451 0.861043 665.455 1.29688C665.55 11.464 673.869 19.6115 684.036 19.4951C694.203 19.3785 702.367 11.0428 702.272 0.875977C702.27 0.582323 702.258 0.290134 702.242 0H716.451C730.008 0 740.998 10.9893 740.998 24.5459V1040.16C740.998 1053.72 730.008 1064.71 716.451 1064.71H701.561C702.039 1063.04 702.289 1061.27 702.272 1059.45C702.177 1049.28 693.858 1041.13 683.691 1041.25C673.525 1041.37 665.36 1049.7 665.455 1059.87C665.471 1061.55 665.711 1063.17 666.146 1064.71H653.767C654.148 1063.2 654.345 1061.62 654.33 1060C654.235 1049.83 645.917 1041.68 635.75 1041.8C625.583 1041.91 617.418 1050.25 617.513 1060.42C617.527 1061.9 617.716 1063.33 618.059 1064.71H605.956C606.252 1063.37 606.401 1061.97 606.388 1060.54C606.293 1050.38 597.974 1042.23 587.808 1042.35C577.641 1042.46 569.475 1050.8 569.57 1060.97C569.582 1062.25 569.726 1063.5 569.987 1064.71H558.125C558.346 1063.54 558.458 1062.33 558.446 1061.09C558.351 1050.93 550.032 1042.78 539.865 1042.9C529.698 1043.01 521.534 1051.35 521.629 1061.52C521.639 1062.61 521.744 1063.67 521.936 1064.71H510.277C510.435 1063.71 510.514 1062.69 510.504 1061.64C510.409 1051.48 502.09 1043.33 491.923 1043.44C481.756 1043.56 473.592 1051.9 473.687 1062.06C473.695 1062.96 473.769 1063.84 473.901 1064.71H462.413C462.518 1063.88 462.569 1063.04 462.562 1062.19C462.466 1052.02 454.147 1043.88 443.98 1043.99C433.814 1044.11 425.649 1052.45 425.744 1062.61C425.751 1063.32 425.798 1064.02 425.883 1064.71H414.533C414.596 1064.06 414.625 1063.4 414.619 1062.74C414.524 1052.57 406.205 1044.43 396.038 1044.54C385.871 1044.66 377.707 1053 377.802 1063.16C377.807 1063.68 377.835 1064.2 377.882 1064.71H366.637C366.668 1064.24 366.681 1063.77 366.677 1063.29C366.582 1053.12 358.263 1044.97 348.097 1045.09C337.93 1045.21 329.764 1053.54 329.859 1063.71C329.862 1064.05 329.876 1064.38 329.896 1064.71H318.722C318.732 1064.42 318.738 1064.13 318.735 1063.84C318.64 1053.67 310.321 1045.52 300.154 1045.64C289.988 1045.76 281.822 1054.09 281.917 1064.26C281.918 1064.41 281.922 1064.56 281.927 1064.71H270.792C270.793 1064.6 270.794 1064.49 270.793 1064.39C270.698 1054.22 262.379 1046.07 252.212 1046.19C242.079 1046.31 233.936 1054.59 233.976 1064.71H222.846C222.629 1054.65 214.36 1046.62 204.27 1046.74C194.321 1046.85 186.29 1054.84 186.039 1064.71H174.883C174.383 1054.91 166.233 1047.17 156.327 1047.29C146.563 1047.4 138.647 1055.09 138.119 1064.71H126.906C126.137 1055.17 118.106 1047.72 108.386 1047.84C98.8084 1047.95 91.0088 1055.35 90.2158 1064.71H78.9111C77.8839 1055.43 69.9764 1048.28 60.4434 1048.38C51.054 1048.49 43.3724 1055.61 42.3271 1064.71H24.5459C10.9895 1064.71 0.00016511 1053.72 0 1040.16V24.5459C0.000157769 10.9895 10.9895 0.000245611 24.5459 0H44.1572Z" fill="var(--fill-0, white)"/>
</svg>
