<svg width="915" height="273" viewBox="0 0 915 273" fill="none" xmlns="http://www.w3.org/2000/svg">
  <defs>
    <linearGradient id="bodyGrad" x1="0" y1="0" x2="0" y2="273" gradientUnits="userSpaceOnUse">
      <stop offset="0%"   stop-color="#e9e9ff"/>
      <stop offset="38%"  stop-color="#dde8fb"/>
      <stop offset="100%" stop-color="#cce5f1"/>
    </linearGradient>
    <radialGradient id="satinTop" cx="50%" cy="18%" rx="39%" ry="29%">
      <stop offset="0%"  stop-color="rgba(255,255,255,0.60)"/>
      <stop offset="36%" stop-color="rgba(255,255,255,0.26)"/>
      <stop offset="68%" stop-color="rgba(255,255,255,0)"/>
    </radialGradient>
    <linearGradient id="edgeShadow" x1="0" y1="0" x2="915" y2="0" gradientUnits="userSpaceOnUse">
      <stop offset="0%"   stop-color="rgba(0,0,0,0.13)"/>
      <stop offset="5%"   stop-color="rgba(0,0,0,0)"/>
      <stop offset="95%"  stop-color="rgba(0,0,0,0)"/>
      <stop offset="100%" stop-color="rgba(0,0,0,0.13)"/>
    </linearGradient>
  </defs>

  <!-- Main body — lavender gradient -->
  <path
    d="M6.453 37.318C14.594 15.499 38.726 0.953984 61.536 0.895984C108.174 0.776984 154.813 0.878974 201.452 0.885974L480.59 0.896991L730.13 0.891986C771.31 0.888986 812.84 0.670002 854.03 0.959002C860.55 1.005 867.79 2.18498 873.9 4.43398C888.87 9.83798 900.99 21.132 907.42 35.692C915.2 47.969 914.97 85.885 913.63 100.47C913.68 113.99 914.87 170.736 912.15 180.64C910.61 203.777 911.67 245.055 894.29 261.033C879.54 274.596 856.57 272.256 837.84 272.04L837.83 256.793L837.82 245.209L79.047 245.216L79.05 256.901L79.092 272.008C66.206 272.223 52.641 273.578 40.869 268.495C13.146 256.739 13.016 222.537 8.55298 196.177C-2.92702 174.888 1.21802 120.221 1.30902 94.199C0.445022 78.162 -0.093996 51.577 6.453 37.318Z"
    fill="url(#bodyGrad)"
  />
  <!-- Satin top highlight -->
  <path
    d="M6.453 37.318C14.594 15.499 38.726 0.953984 61.536 0.895984C108.174 0.776984 154.813 0.878974 201.452 0.885974L480.59 0.896991L730.13 0.891986C771.31 0.888986 812.84 0.670002 854.03 0.959002C860.55 1.005 867.79 2.18498 873.9 4.43398C888.87 9.83798 900.99 21.132 907.42 35.692C915.2 47.969 914.97 85.885 913.63 100.47C913.68 113.99 914.87 170.736 912.15 180.64C910.61 203.777 911.67 245.055 894.29 261.033C879.54 274.596 856.57 272.256 837.84 272.04L837.83 256.793L837.82 245.209L79.047 245.216L79.05 256.901L79.092 272.008C66.206 272.223 52.641 273.578 40.869 268.495C13.146 256.739 13.016 222.537 8.55298 196.177C-2.92702 174.888 1.21802 120.221 1.30902 94.199C0.445022 78.162 -0.093996 51.577 6.453 37.318Z"
    fill="url(#satinTop)"
  />
  <!-- Left/right edge shadows -->
  <path
    d="M6.453 37.318C14.594 15.499 38.726 0.953984 61.536 0.895984C108.174 0.776984 154.813 0.878974 201.452 0.885974L480.59 0.896991L730.13 0.891986C771.31 0.888986 812.84 0.670002 854.03 0.959002C860.55 1.005 867.79 2.18498 873.9 4.43398C888.87 9.83798 900.99 21.132 907.42 35.692C915.2 47.969 914.97 85.885 913.63 100.47C913.68 113.99 914.87 170.736 912.15 180.64C910.61 203.777 911.67 245.055 894.29 261.033C879.54 274.596 856.57 272.256 837.84 272.04L837.83 256.793L837.82 245.209L79.047 245.216L79.05 256.901L79.092 272.008C66.206 272.223 52.641 273.578 40.869 268.495C13.146 256.739 13.016 222.537 8.55298 196.177C-2.92702 174.888 1.21802 120.221 1.30902 94.199C0.445022 78.162 -0.093996 51.577 6.453 37.318Z"
    fill="url(#edgeShadow)"
  />

  <!-- Lower body shadow — adds depth toward the slot -->
  <path
    d="M12.185 198.952C18.021 204.52 21.809 209.803 29 214.484C51.911 229.399 87.703 224.591 114.766 224.601L228.8 224.578L581.68 224.561L776.5 224.574L826.74 224.712C860.57 224.809 886.81 226.691 906.02 192.246C908.2 188.344 909.55 184.247 912.15 180.64C910.61 203.777 911.67 245.055 894.29 261.033C879.54 274.596 856.57 272.256 837.84 272.04L837.83 256.793L837.82 245.209L79.047 245.216L79.05 256.901L79.092 272.008C66.206 272.223 52.641 273.578 40.869 268.495C13.146 256.739 13.016 222.537 8.55298 196.177L10.074 195.805C11.138 197.159 11.572 197.418 12.185 198.952Z"
    fill="rgba(0,0,0,0.07)"
  />

  <!-- Slot / chin — dark paper-exit opening -->
  <path
    d="M79.05 256.901C70.623 257.056 63.632 258.241 57.038 251.901C47.845 243.062 58.301 234.462 67.603 234.216C85.768 233.736 104.006 233.979 122.182 234.024L230.618 234.086L692.27 234.076L806.7 234.074C820.89 234.074 836.81 233.625 850.99 234.535C856.65 234.897 863.08 242.207 860.14 247.942C855.66 258.055 846.8 257.139 837.83 256.793L837.82 245.209L79.047 245.216L79.05 256.901Z"
    fill="#060614"
  />
</svg>
